<svg width="256" height="277" viewBox="0 0 256 277" fill="none" xmlns="http://www.w3.org/2000/svg">
<path fill-rule="evenodd" clip-rule="evenodd" d="M247.848 20.9131C246.673 20.4605 244.73 19.3748 243.491 18.5138C242.252 17.6528 240.192 16.5686 238.843 16.1767C237.493 15.7849 235.963 14.9861 235.43 14.4668C234.838 13.8898 234.134 13.6651 233.903 13.9019C233.614 14.1979 231.913 13.6936 230.147 12.781C228.265 11.8698 226.091 11.0209 225.271 10.9146C224.393 10.8674 221.986 10.0214 219.869 9.11327C217.694 8.14743 215.816 7.58703 215.528 7.88304C215.239 8.17905 212.072 7.40129 208.432 6.162C204.734 4.98191 201.333 4.20721 200.694 4.50773C200.112 4.74905 199.352 4.70041 198.937 4.29652C198.582 3.95033 197.412 3.84845 196.362 4.09578C195.256 4.40232 194.377 4.23826 194.254 3.77216C194.073 3.36527 193.31 3.0828 192.434 3.15253C191.558 3.22225 190.621 3.11738 190.384 2.88659C189.851 2.3673 186.34 2.06164 180.842 1.89851C178.972 1.92257 177.214 1.59449 176.918 1.306C176.681 1.0752 176.153 0.906568 175.746 1.08718C175.456 1.26629 173.057 1.12181 170.481 0.804191C164.451 0.121774 158.899 0.251593 158.499 1.01671C158.328 1.31121 157.626 1.32023 156.803 0.980058C155.393 0.413596 144.402 0.321192 143.825 0.913212C143.651 1.09082 140.204 1.1936 136.112 1.24622C130.676 1.25769 128.051 1.70068 126.254 2.95144C124.69 4.08229 123.058 4.454 121.65 4.00444C120.476 3.66877 119.483 3.74006 119.371 4.09227C119.258 4.44447 118.329 4.92407 117.279 5.0545C116.228 5.18494 114.833 5.78747 114.313 6.32028C113.736 6.9123 113.038 7.15514 112.683 6.80895C112.387 6.52045 111.571 6.76478 110.937 7.416C110.36 8.00802 109.255 8.43147 108.55 8.20669C106.731 7.70394 99.0184 12.5384 94.2857 17.2761C89.2629 22.1928 84.3324 29.7391 84.2516 32.5462C84.2089 33.7744 83.6971 34.8917 83.1156 35.133C82.5356 35.4913 82.0846 36.7832 82.1012 38.0691C82.1192 39.4719 82.0143 40.4086 81.8367 40.2355C81.6591 40.0624 81.3204 41.0021 81.0455 42.3503C80.5503 44.7535 81.3957 46.8472 82.07 44.7339C82.1794 44.1479 82.3082 45.0816 82.1562 46.8958C81.8521 50.5242 81.8551 50.7581 82.4376 55.1351C82.6362 56.9448 83.5453 59.4469 84.4379 60.663C85.3304 61.8792 86.4096 63.9699 86.8952 65.3667C87.6267 67.6957 87.4566 68.107 84.684 70.7149C83.0093 72.3149 81.3847 73.2711 81.0295 72.9249C80.6743 72.5787 78.6398 73.4818 76.4945 74.854C74.3491 76.2262 72.1992 77.2476 71.7301 77.1367C71.2033 77.085 70.5626 77.2687 70.2741 77.5647C69.9279 77.9199 70.1662 78.2676 70.8114 78.4347C71.5735 78.6003 71.3443 78.954 70.0082 79.6142C67.4514 80.8163 57.6382 90.53 58.2894 91.1646C58.5854 91.4531 57.9568 92.572 56.8605 93.6968C55.7642 94.8216 55.0808 96.2334 55.3798 96.7557C55.6819 97.5118 55.5073 97.5725 54.9153 96.9956C54.3247 96.5355 54.0347 96.7146 53.9284 97.5344C53.8797 98.295 53.3132 99.7053 52.683 100.707C51.1949 103.182 50.8587 108.857 51.8615 114.105C52.3592 116.437 52.8464 117.951 52.9558 117.365C53.1229 116.72 53.5297 116.539 53.8257 116.827C54.1809 117.174 54.2462 117.699 53.9 118.054C53.6115 118.35 53.8603 119.516 54.6344 120.617C55.2917 121.719 56.0749 123.521 56.3237 124.687C56.8199 126.902 60.985 132.578 66.0809 137.891C67.265 139.045 67.9253 140.381 67.6368 140.677C67.2906 141.032 65.253 141.701 62.9802 142.257C55.9281 143.926 40.0441 149.801 39.6492 150.916C39.3652 151.563 38.7837 151.805 38.1962 151.578C37.7256 151.35 36.678 151.715 35.811 152.486C35.0018 153.198 33.6111 154.151 32.7396 154.571C31.8681 154.992 29.8928 155.953 28.3244 156.733C26.6968 157.455 25.3637 158.349 25.4259 158.641C25.3713 158.934 24.4451 159.647 23.399 160.128C20.203 161.631 10.5523 170.349 10.4549 171.87C10.464 172.571 9.71993 173.808 8.91216 174.637C6.08344 177.421 2.70781 183.135 1.41832 187.42C-0.944853 194.582 0.186338 205.266 3.87941 210.596C4.35455 211.175 4.95412 212.336 5.25463 212.976C6.63733 215.939 11.8014 222.011 15.0485 224.483C16.9962 225.92 19.7771 228.514 21.2025 230.25C22.8039 232.042 23.8681 232.963 24.0366 232.435C24.1476 231.966 25.2072 232.537 26.3912 233.691C27.6329 234.786 29.4637 236.224 30.5233 236.795C31.583 237.365 33.1739 238.339 34.1758 238.969C35.1778 239.599 37.6522 241.087 39.7123 242.172C41.8315 243.313 44.3651 244.859 45.4262 245.547C49.024 248.015 52.5737 246.741 50.4896 243.787C49.9538 243.034 50.0662 242.681 50.7691 242.789C51.3566 243.016 51.8407 244.295 51.9195 245.873L51.9556 248.678L56.0149 250.672C58.3088 251.754 60.4827 252.603 60.9503 252.597C61.301 252.592 62.303 253.222 63.0134 253.915C65.4999 256.338 73.596 258.572 73.6327 256.876C73.569 256.468 74.0381 256.579 74.6301 257.156C75.1629 257.675 75.2282 258.2 74.7044 258.383C73.2469 258.694 75.7288 260.766 78.0122 261.029C79.0658 261.132 80.5945 261.814 81.2457 262.449C82.489 263.661 85.8409 265.196 91.4792 267.228C92.8895 267.794 94.9465 268.645 96.0669 269.39C97.1857 270.019 98.3 270.297 98.5308 270.06C99.6848 268.876 100.069 266.942 99.2403 266.134C98.7666 265.673 98.8776 265.204 99.3437 265.081C99.8675 264.899 100.69 265.239 101.223 265.758C101.756 266.277 103.048 266.728 104.159 266.773C105.621 266.812 105.976 267.159 105.812 268.037C105.645 268.683 105.413 268.803 105.288 268.22C105.164 267.637 104.46 267.412 103.763 267.772C101.613 268.793 100.81 269.973 101.757 270.896C102.23 271.357 103.049 271.347 103.51 270.873C103.972 270.4 104.672 270.274 105.027 270.62C105.323 270.908 105.153 271.32 104.512 271.503C103.872 271.687 103.873 271.804 104.518 271.971C105.163 272.138 106.036 271.835 106.498 271.361C106.96 270.887 107.839 271.051 108.49 271.686C109.556 272.725 109.788 272.605 110.236 271.079C110.907 268.732 112.266 269.825 112.007 272.459C111.796 274.216 111.913 274.214 112.77 272.625C113.57 271.211 113.92 271.207 115.164 272.419C115.993 273.226 116.876 273.741 117.165 273.445C117.395 273.208 118.86 273.482 120.33 274.106C124.5 275.631 129.19 276.623 129.24 275.979C129.178 275.688 128.221 274.063 127.148 272.44C123.095 266.412 118.414 261.503 113.637 258.233C110.982 256.337 108.623 254.731 108.445 254.558C108.384 254.383 107.089 253.698 105.677 253.015C104.323 252.272 101.969 251.017 100.613 250.157C99.1999 249.357 93.369 245.983 87.6565 242.724C64.5711 229.575 45.8717 216.545 38.341 208.282C34.0117 203.486 30.9518 197.387 30.8415 193.355C30.7949 189.731 31.7914 185.392 32.561 186.142C32.9754 186.546 33.4385 186.189 33.7772 185.249C34.0596 184.486 35.2076 182.834 36.3039 181.709C37.5733 180.407 38.1974 178.937 38.0669 177.887C37.8788 176.895 38.0976 175.723 38.4438 175.368C38.9054 174.895 39.0829 175.068 38.9189 175.947C38.6971 176.885 39.107 176.938 40.3809 175.986C41.3663 175.331 41.7671 174.682 41.3572 174.629C40.8881 174.518 40.9399 173.992 41.4015 173.518C41.9784 172.926 42.5067 173.094 42.9864 174.024C43.5282 175.244 43.5859 175.185 43.7987 173.546C43.9537 171.965 44.0691 171.847 44.6064 172.717C44.9647 173.297 45.7238 173.229 46.4162 172.518C47.0509 171.867 47.8039 171.331 48.1546 171.327C48.5645 171.38 50.6567 170.417 52.9204 169.161C56.2303 167.423 57.0396 166.711 56.7937 165.779C56.6071 164.904 56.8971 164.725 57.9552 165.179C58.6611 165.521 59.8272 165.272 60.4042 164.68C60.9811 164.088 62.4356 163.543 63.7215 163.526C65.1243 163.508 65.9958 163.088 66.2753 162.091C66.7218 160.448 69.0433 159.132 69.3513 160.356C69.4743 160.822 70.1727 160.579 70.9228 159.809C71.6728 159.04 72.892 158.381 73.7103 158.37C74.5286 158.36 74.9355 158.179 74.6395 157.891C74.4027 157.66 75.687 157.527 77.5013 157.679C79.3155 157.831 80.9491 157.576 81.0007 157.049C81.1116 156.58 81.8115 156.454 82.4582 156.738C83.1642 157.08 83.8049 156.896 83.9734 156.368C84.2514 155.253 89.0443 155.192 91.3397 156.39C92.2809 156.846 93.3345 156.949 93.623 156.653C93.9692 156.298 94.3229 156.527 94.4458 156.993C94.5703 157.576 95.2776 158.035 95.9806 158.142C96.6834 158.25 98.0938 158.817 99.2126 159.446C101.746 160.991 104.843 160.893 105.466 159.307C105.808 158.601 106.039 158.364 106.102 158.772C106.108 159.24 106.817 159.815 107.698 160.096C108.871 160.432 109.346 161.01 109.363 162.296C109.384 163.933 109.619 164.047 111.891 163.375C113.346 162.947 113.931 162.939 113.293 163.357C112.364 163.836 112.428 164.245 113.783 165.104L115.494 166.31L114.76 163.747C113.726 160.662 108.875 156.164 107.07 156.714C106.371 156.957 105.492 156.793 105.078 156.389C103.302 154.658 109.632 155.979 114.868 158.543C118.103 160.079 120.572 161.1 120.217 160.754C119.921 160.465 120.385 160.225 121.086 160.216C122.255 160.201 122.552 160.49 122.274 161.604C121.83 163.481 119.377 163.629 118.419 161.888C117.998 161.016 117.409 160.673 117.063 161.028C116.775 161.324 116.846 162.317 117.324 163.129C117.802 163.942 117.758 165.053 117.239 165.586C116.489 166.355 116.666 166.529 117.954 166.629C119.358 166.728 119.589 166.491 119.401 165.499C119.27 164.449 119.443 164.271 120.266 164.611C120.796 164.897 122.026 165.056 122.902 164.987C124.364 165.026 124.6 165.257 124.62 166.777C124.637 168.063 125.113 168.758 126.7 169.381C129.581 170.688 130.5 169.39 127.904 167.553C126.31 166.346 126.131 166.056 127.298 165.924C128.057 165.856 128.868 165.261 129.094 164.673C129.378 164.027 130.485 163.72 131.599 163.998C133.886 164.495 134.37 165.775 132.266 165.802C130.162 165.829 129.879 166.592 131.528 167.507C132.352 167.964 132.769 168.601 132.423 168.957C131.096 170.318 133.161 171.753 136.258 171.655C139.004 171.561 139.352 171.323 138.523 170.515C137.99 169.996 137.404 169.886 137.293 170.355C137.24 170.765 136.188 170.779 135.072 170.384C133.193 169.707 133.132 169.532 134.405 168.463C135.214 167.751 135.439 167.047 134.909 166.762C133.316 165.671 134.888 165.125 137.119 165.915C140.115 166.987 140.53 167.508 138.071 167.189C135.612 166.869 136.56 167.91 139.61 168.689C141.077 169.079 141.601 168.897 141.068 168.378C140.593 167.799 141.001 167.735 142.118 168.247C143.117 168.644 144.171 168.747 144.459 168.451C144.748 168.155 145.631 168.67 146.404 169.654C147.234 170.578 148.59 171.438 149.41 171.544C150.697 171.644 150.641 171.821 149.366 172.655C148.379 173.194 147.92 173.902 148.216 174.19C148.512 174.479 149.153 174.295 149.73 173.703C150.249 173.17 150.658 173.107 150.662 173.457C150.738 174.801 154.017 175.226 155.171 174.042C155.806 173.391 156.088 172.627 155.733 172.281C155.437 171.993 154.972 172.233 154.688 172.879C154.404 173.526 153.767 173.943 153.181 173.834C152.536 173.667 152.703 173.022 153.568 172.134C155.241 170.417 159.699 171.529 159.199 173.581C158.922 174.812 159.272 174.691 161.238 173.029C161.759 172.613 162.46 172.604 162.759 173.126C163.116 173.589 163.873 173.404 164.508 172.753C165.143 172.102 166.076 171.973 166.55 172.434C167.083 172.954 168.02 173.059 168.659 172.758C169.357 172.515 170.412 172.735 171.004 173.312C171.656 173.947 172.533 173.994 173.052 173.462C173.572 172.929 174.624 172.915 175.448 173.372C176.272 173.829 177.211 174.051 177.499 173.755C177.847 173.517 178.367 173.101 178.715 172.863C179.757 172.031 181.105 172.306 180.297 173.135C178.855 174.615 182.823 174.096 185.083 172.488C186.183 171.714 187.519 171.054 188.163 171.104C191.201 170.948 192.814 164.555 190.387 162.19C189.972 161.786 189.727 160.854 189.775 160.093C189.871 158.455 184.948 152.964 184.083 153.853C183.737 154.208 183.383 153.978 183.26 153.512C183.136 152.929 182.428 152.471 181.725 152.363C181.022 152.255 179.377 151.575 178.14 150.831C176.901 149.97 175.551 149.578 175.263 149.874C174.974 150.17 174.27 149.945 173.678 149.368C173.086 148.791 172.202 148.276 171.735 148.282C171.209 148.347 170.622 148.121 170.444 147.948C168.67 146.334 156.648 143.39 146.048 141.948C143.529 141.571 140.188 140.854 138.718 140.23C137.191 139.665 135.846 139.624 135.735 140.093C135.624 140.562 135.043 140.804 134.457 140.694C133.694 140.529 133.751 140.353 134.566 140.108C135.324 139.923 135.378 139.63 134.672 139.288C134.026 139.004 133.153 139.308 132.693 139.899C132.116 140.491 130.831 140.624 129.715 140.229C128.599 139.834 127.429 139.732 127.198 139.969C126.967 140.206 125.27 140.052 123.453 139.667C121.636 139.281 119.765 139.305 119.304 139.778C118.842 140.252 117.963 140.088 117.312 139.453C116.661 138.819 115.897 138.536 115.666 138.773C115.378 139.069 112.689 139.104 109.764 138.907C104.79 138.562 103.791 138.166 99.1853 134.6C96.3527 132.532 93.4623 130.523 92.7002 130.358C91.9958 130.133 90.9332 129.328 90.3974 128.575C89.9192 127.763 87.9018 125.45 86.0635 123.428C84.1069 121.29 81.8984 117.752 80.8709 115.135C79.8449 112.634 78.523 109.845 77.9249 108.801C77.2677 107.699 77.2451 105.945 77.7523 104.477C78.3188 103.067 78.2947 101.196 77.8743 100.325C77.3962 99.5124 77.3872 98.8111 77.914 98.8628C79.4959 99.1347 80.4161 97.9537 79.235 97.0335C77.8157 95.7656 81.1667 92.6826 83.3377 93.2978C84.5689 93.5742 84.8011 93.4543 84.5538 92.4052C84.2487 91.4153 84.7103 90.9417 86.9756 89.8018C88.544 89.0217 89.9348 88.0685 89.9865 87.5417C90.0974 87.0726 90.6197 86.7735 91.2057 86.8829C91.7917 86.9923 92.3125 86.5763 92.4218 85.9903C92.5889 85.3451 92.768 85.6351 92.8985 86.6857C93.0941 88.2616 93.2702 88.3179 94.078 87.489C94.5973 86.9562 94.7644 86.311 94.4092 85.9648C93.4619 85.0417 95.2004 83.85 97.6538 83.7016C98.9974 83.6258 100.045 83.2616 99.9813 82.8532C100.034 82.4433 100.737 82.5512 101.679 83.0067C102.562 83.5215 103.558 83.6841 103.847 83.3881C104.135 83.0921 104.842 83.5507 105.439 84.4783C105.976 85.3483 106.213 85.5791 106.031 85.0553C105.427 83.5431 106.295 82.8889 107.361 83.9275C107.835 84.3891 108.018 85.0298 107.73 85.3258C107.095 85.977 108.81 87.5334 109.917 87.2269C110.383 87.1039 110.321 86.8124 109.674 86.5284C109.028 86.2445 108.961 85.6022 109.48 85.0694C109.942 84.5958 110.583 84.4122 110.879 84.7007C111.115 84.9315 111.583 84.9255 111.871 84.6295C112.506 83.9783 109.736 82.2016 107.569 81.9372C106.223 81.7791 106.28 81.7199 108.089 81.4044C112.173 80.7673 112.642 80.8781 112.605 82.5739C112.564 83.919 112.743 84.209 113.792 83.9617C114.782 83.6567 115.083 84.2959 115.17 86.5747C115.255 88.6197 115.556 89.2589 116.073 88.6092C117.566 86.4854 118.44 86.2988 119.685 87.6273C120.553 88.4736 120.322 88.6325 118.99 88.104C116.462 87.0257 116.255 89.1329 118.74 91.4394C123.179 95.6498 123.767 95.8762 125.739 94.6816C126.783 94.0836 127.485 94.0745 127.257 94.5451C127.031 95.1326 127.099 95.8917 127.454 96.2379C128.579 97.3342 128.188 94.1824 126.866 91.3933C125.906 89.5349 125.96 89.1251 126.905 89.9313C127.614 90.5068 128.855 91.4847 129.682 92.1755C130.744 92.9803 130.872 93.7971 130.128 95.0343C129.156 96.7422 129.645 98.3728 130.799 97.1887C131.145 96.8335 131.908 97.116 132.56 97.7507C133.211 98.3854 134.148 98.4903 134.609 98.0166C135.59 97.0102 137.243 98.2751 136.97 99.7401C136.639 101.264 137.935 102.066 138.501 100.656C139.126 99.1862 142.176 99.9654 143.076 101.766C143.499 102.871 143.385 103.107 142.33 102.886C141.451 102.722 141.63 103.012 142.867 103.756C145.046 104.956 147.329 105.219 146.204 104.123C145.79 103.719 145.782 103.134 146.071 102.838C146.475 102.424 146.83 102.77 147.194 103.818C147.558 104.865 148.621 105.67 150.675 106.287C153.963 107.414 155.828 106.922 154.755 105.299C154.219 104.546 154.627 104.482 156.212 104.988C158.208 105.664 158.21 105.78 156.758 106.559C155.656 107.216 155.544 107.569 156.25 107.91C156.896 108.194 157.769 107.891 158.229 107.3C158.864 106.649 159.332 106.643 159.691 107.34C159.993 108.096 160.636 108.029 161.56 107.199C162.253 106.488 162.661 106.425 162.493 106.953C162.207 107.483 162.453 108.415 162.926 108.877C163.637 109.569 163.869 109.449 163.971 108.279C164.076 107.342 164.478 106.811 165.007 106.979C165.476 107.09 165.717 107.672 165.489 108.142C165.205 108.789 165.556 108.784 166.191 108.133C167.115 107.303 167.351 107.417 167.484 108.701C167.618 109.986 168.909 110.437 175.289 110.998C184.244 111.876 220.604 111.642 221.527 110.695C221.873 110.34 223.45 110.261 225.149 110.532C227.549 110.793 228.19 110.609 228.292 109.439C228.394 108.268 228.57 108.325 229.11 109.428C229.473 110.359 229.884 110.529 229.936 110.002C230.105 109.474 230.741 108.94 231.558 108.812C232.722 108.447 232.84 108.562 232.09 109.332C231.457 110.1 231.633 110.156 232.915 109.789C233.73 109.544 234.598 108.89 234.767 108.362C234.819 107.835 236.038 107.176 237.379 106.867C238.719 106.557 240.054 105.78 240.28 105.193C240.564 104.546 241.202 104.129 241.671 104.239C243.371 104.627 245.488 101.033 245.731 97.2304C246.026 92.9006 243.672 87.1433 240.298 83.8545C236.213 79.8733 229.201 75.5791 228.278 76.5263C227.701 77.1183 227.171 76.8328 226.336 75.5575C225.738 74.5129 224.498 73.535 223.677 73.3117C219.98 72.2485 213.985 69.7534 213.274 69.061C212.801 68.5994 211.101 68.2121 209.405 68.1754C207.709 68.1388 205.713 67.4629 205.002 66.7706C204.233 66.0205 201.356 65.0636 198.72 64.6883C196.025 64.2553 192.802 63.6537 191.627 63.2012C190.395 62.8078 189.164 62.5313 188.813 62.5358C188.462 62.5404 185.884 62.1058 183.188 61.5559C180.433 60.9483 178.034 60.8038 177.981 61.2137C177.928 61.6236 176.523 61.5247 174.996 60.9597C173.47 60.5117 171.304 60.2472 170.255 60.4946C169.148 60.8011 167.8 60.5262 167.208 59.9492C166.616 59.3722 165.618 59.0927 165.037 59.334C164.398 59.6346 161.413 59.3807 158.424 58.7761C155.377 58.2307 152.919 58.0284 152.923 58.3791C152.937 59.4312 149.614 60.117 148.726 59.2516C148.252 58.79 147.608 58.7398 147.323 59.2696C147.036 59.6825 145.924 59.6384 144.865 59.0674C143.805 58.4964 143.218 58.2701 143.515 58.6755C144.168 59.4271 138.906 59.3778 136.966 58.5259C135.672 57.9579 131.421 59.2402 130.676 60.3606C130.504 60.6551 130.09 60.2512 129.789 59.612C129.31 58.6828 129.017 58.6281 128.617 59.3933C128.163 60.4514 122.963 60.6936 121.957 59.7128C121.661 59.4243 121.142 59.9571 120.685 60.7814C120.173 61.8988 119.649 62.0809 118.998 61.4462C118.465 60.9269 117.647 60.9374 117.127 61.4702C116.55 62.0623 115.964 61.9529 115.664 61.3137C115.362 60.5576 114.542 60.4512 113.67 60.8716C111.464 62.0692 110.106 60.9759 107.705 56.0962C104.408 49.7664 103.552 46.8545 103.568 43.5221C103.606 41.9432 103.412 40.4841 103.116 40.1956C102.82 39.9071 102.987 39.262 103.448 38.7884C103.968 38.2556 104.355 36.5552 104.335 35.0355C104.31 33.0482 104.82 31.814 105.979 30.9807C106.905 30.2672 107.594 29.323 107.412 28.7992C107.288 28.2162 107.748 27.6256 108.68 27.3798C109.61 27.0171 110.648 25.8346 111.503 24.1283C112.641 21.7752 113.105 21.4185 115.092 21.3929C116.728 21.3719 117.251 21.0729 116.891 20.376C116.531 19.6791 116.994 19.3224 118.86 18.9476C120.201 18.6381 121.944 17.7972 122.812 17.143C123.679 16.3719 125.308 15.7663 126.535 15.6921C127.762 15.6179 128.518 15.3158 128.163 14.9696C127.867 14.6811 127.975 13.9782 128.436 13.5046C128.955 12.9718 129.599 13.022 129.84 13.6035C130.141 14.2427 130.492 14.2381 130.832 13.4153C131.174 12.7094 131.699 12.6442 132.291 13.2212C132.824 13.7404 134.169 13.7816 135.273 13.2413C136.376 12.701 137.544 12.569 137.899 12.9152C138.254 13.2614 139.247 13.1901 140.119 12.7697C140.99 12.3493 146.887 11.7473 153.197 11.4324C159.506 11.1174 164.878 10.5806 165.048 10.1692C165.277 9.81544 165.514 10.0463 165.638 10.6293C165.822 11.27 166.645 11.6101 167.519 11.4235C168.395 11.3537 171.26 11.3754 173.835 11.5761C176.526 11.7753 178.98 11.6269 179.326 11.2717C179.731 10.9741 180.258 11.0258 180.557 11.5481C180.914 12.0112 182.264 12.403 183.609 12.4442C184.837 12.4869 186.129 12.9379 186.194 13.4632C186.376 13.987 186.551 13.9263 186.718 13.2811C186.827 12.6951 186.527 12.0559 186 12.0042C185.471 11.8356 185.877 11.5381 186.926 11.2908C188.033 10.9843 188.97 11.0891 189.091 11.4383C189.095 11.789 190.094 12.1854 191.148 12.2888C192.202 12.3922 193.73 13.074 194.5 13.8241C195.27 14.5741 196.149 14.7383 196.726 14.1462C197.187 13.6726 197.181 13.205 196.653 13.0364C196.184 12.9256 195.945 12.5779 196.292 12.2226C197.272 11.2162 198.81 12.5994 198.597 14.239C198.441 15.7026 198.5 15.7603 199.482 14.8707C200.983 13.3315 203.498 13.4745 206.033 15.1372C207.271 15.8813 208.503 16.2747 208.734 16.0379C209.253 15.5051 212.835 16.6867 214.782 18.1231C215.371 18.4663 216.716 18.5074 217.881 18.1417C219.918 17.4724 224.957 18.343 224.092 19.231C223.861 19.4678 224.52 20.687 225.587 21.8425C227.011 23.461 227.54 23.7465 227.938 22.8645C228.222 22.2177 228.15 21.108 227.732 20.4703C227.195 19.6003 227.603 19.5366 229.425 20.2732C230.776 20.7819 232.312 22.0482 232.909 22.9759C233.505 23.9036 234.037 24.306 234.148 23.8369C234.371 23.0156 238.403 22.9053 238.356 23.7828C238.359 24.0166 239.774 24.9337 241.422 25.8479C245.307 27.9025 245.661 28.1318 246.268 29.8777C246.874 31.5068 250.523 33.4475 250.151 31.8154C249.968 31.1747 250.898 30.812 252.886 30.7864C254.639 30.7639 255.861 30.3389 255.854 29.7544C255.831 28.0009 250.139 21.7605 247.848 20.9131ZM221.352 88.015C221.001 88.0195 220.411 87.5594 220.169 86.9779C219.869 86.3387 220.219 86.3342 220.871 86.9689C221.58 87.5444 221.762 88.0682 221.352 88.015ZM216.28 84.5726C216.169 85.0417 216.764 85.8526 217.589 86.3096C218.413 86.7667 218.83 87.4044 218.542 87.7004C218.253 87.9964 217.43 87.6562 216.835 86.8454C216.123 86.0362 215.173 84.8792 214.581 84.3022C214.047 83.666 214.039 83.0815 214.506 82.9586C215.672 82.7098 216.558 83.4583 216.28 84.5726ZM209.872 81.7906C209.348 81.9727 208.466 81.5748 207.934 81.0555C207.103 80.1308 207.161 80.0716 208.339 80.758C208.987 81.1588 209.865 81.2061 210.211 80.8509C210.557 80.4956 210.908 80.4911 210.855 80.901C210.859 81.2517 210.455 81.6661 209.872 81.7906ZM219.057 91.4352C218.775 92.1988 219.078 93.0718 219.669 93.5319C220.436 94.0481 220.387 94.8088 219.467 95.9898C218.374 97.3484 217.733 97.532 216.379 96.7895C215.436 96.217 212.454 96.197 209.772 96.6991C207.031 97.2605 203.993 97.4165 202.996 97.137C201.998 96.8576 199.66 96.8876 197.795 97.2624C195.929 97.6371 194.351 97.7159 194.172 97.4259C193.993 97.1359 192.121 97.0431 189.902 97.1885C187.682 97.334 185.048 97.0756 184.046 96.4454C182.986 95.8744 181.989 95.595 181.7 95.891C181.412 96.187 179.068 95.7494 176.545 95.0219C173.962 94.2367 170.855 93.5167 169.627 93.474C167.814 93.4389 158.603 90.9267 157.249 90.1841C157.072 90.011 155.368 89.3899 153.489 88.7125C151.667 87.976 149.846 87.2394 149.375 87.0116C149.021 86.7824 147.728 86.2144 146.61 85.7026C145.435 85.2501 142.436 83.8271 139.963 82.4559C137.432 81.1439 135.02 79.9473 134.434 79.8379C132.791 79.3913 126.125 74.7418 126.529 74.3274C127.337 73.4986 155.682 72.8417 159.608 73.5512C164.413 74.4247 170.201 74.5257 170.894 73.8152C171.24 73.46 171.534 73.6316 171.717 74.1554C171.964 75.2045 175.951 76.0886 175.939 75.1534C175.934 74.8027 176.815 75.0836 177.876 75.7715C180.409 77.3173 182.813 77.8126 182.74 76.7028C182.793 76.2929 182.028 75.8935 181.15 75.8463C180.271 75.6822 179.33 75.2266 179.031 74.7044C178.072 72.846 184.241 75.2804 185.436 77.2527C186.093 78.355 186.801 78.8136 187.205 78.3992C187.551 78.0439 188.313 78.2095 188.964 78.8441C189.556 79.4211 190.789 79.8146 191.665 79.7448C192.541 79.6751 193.596 79.8954 194.01 80.2993C195.194 81.4532 197.877 80.951 197.276 79.6726C197.035 79.0911 197.745 79.7835 198.817 81.2897C200.778 83.7783 200.895 83.7768 201.047 81.9625C201.199 80.1483 201.257 80.0891 201.867 82.0689C202.354 83.5826 202.946 84.1595 204.588 84.6061C205.645 84.9433 206.937 85.3944 207.348 85.5645C207.761 85.8514 209.762 86.8779 211.705 87.9637C213.648 89.0494 215.291 89.496 215.343 88.9692C215.337 88.5016 215.75 88.7886 216.346 89.7163C217.181 90.9916 217.533 91.1041 217.931 90.222C218.215 89.5753 218.68 89.3355 219.035 89.6817C219.331 89.9702 219.341 90.7885 219.057 91.4352ZM214.977 87.8047C214.746 88.0415 213.866 87.7605 213.155 87.0681C211.974 86.148 211.971 85.9142 213.086 86.1922C214.844 86.5203 215.612 87.1535 214.977 87.8047ZM86.2804 40.2952C86.748 40.2892 86.9894 40.8708 86.8238 41.6329C86.3848 43.86 85.5725 44.3381 85.3738 42.5284C85.3011 41.4186 85.0051 41.1301 84.5435 41.6038C84.1973 41.959 83.672 42.0242 83.3168 41.678C83.0208 41.3895 83.3062 40.8597 83.9454 40.5592C84.9915 40.078 84.7442 39.0289 83.2109 37.9963C82.9741 37.7656 83.2611 37.3527 84.0172 37.0506C85.0633 36.5695 85.1817 36.6849 85.3212 38.4369C85.3924 39.4298 85.8128 40.3013 86.2804 40.2952ZM85.455 48.841C82.995 53.0233 82.8796 53.1417 82.7387 51.2728C82.6689 50.3968 82.9514 49.6332 83.2429 49.571C83.5344 49.5088 84.3377 48.3293 85.0803 46.9752C85.7651 45.6802 86.5729 44.8514 86.8689 45.1399C87.1057 45.3707 86.4845 47.074 85.455 48.841ZM87.8998 57.1109C86.9189 58.1173 86.1613 58.3024 85.4508 57.6101C84.6812 56.86 84.6782 56.6262 85.6164 56.8479C86.3193 56.9558 87.1316 56.4777 87.4141 55.7141C87.8135 54.9489 88.3357 54.6499 88.691 54.9961C89.0462 55.3423 88.7075 56.2821 87.8998 57.1109ZM123.344 90.2694C122.882 90.743 122.181 90.752 121.707 90.2904C120.878 89.4827 121.278 88.7176 122.506 88.7602C123.733 88.686 124.151 89.4406 123.344 90.2694ZM89.2097 58.9648C88.4551 59.3837 87.9389 60.1503 88.0618 60.6164C88.2424 61.0233 88.1255 61.0248 87.7687 60.5617C87.0538 59.5186 89.2388 56.6844 90.1269 57.5499C90.4229 57.8384 90.022 58.4866 89.2097 58.9648ZM94.269 65.9734C93.7497 66.5062 92.4091 66.8157 91.4117 66.5362C89.9467 66.2628 89.5322 65.8589 89.5734 64.5138C89.5614 63.5786 89.2593 62.8225 89.0255 62.8255C88.6748 62.83 88.8449 62.4186 89.3065 61.945C89.8258 61.4121 90.764 61.6339 91.5928 62.4417C92.54 63.3649 92.6644 63.9478 91.9069 64.1329C91.2662 64.3166 91.7368 64.5444 92.9058 64.5294C95.4791 64.6132 95.5383 64.6709 94.269 65.9734ZM162.582 159.332C162.293 159.628 161.709 159.635 161.353 159.289C161.057 159.001 161.228 158.589 161.694 158.467C162.217 158.284 162.744 158.336 162.922 158.509C163.04 158.625 162.928 158.977 162.582 159.332ZM156.429 158.183C155.789 158.484 155.785 158.133 156.42 157.482C156.995 156.773 157.519 156.591 157.466 157.001C157.47 157.352 157.01 157.942 156.429 158.183ZM126.397 164.007C123.409 163.519 122.869 162.415 125.794 162.611C127.198 162.71 128.373 163.163 128.32 163.573C128.325 163.923 127.45 164.11 126.397 164.007ZM100.875 156.91C100.764 157.379 100.239 157.445 99.7064 156.925C99.1735 156.406 99.2252 155.879 99.6913 155.756C100.215 155.574 100.742 155.626 100.86 155.741C100.979 155.857 101.044 156.382 100.875 156.91ZM70.7726 134.498C70.6617 134.967 70.2548 135.148 69.9588 134.859C69.6036 134.513 69.596 133.929 69.8845 133.633C70.2307 133.278 70.5799 133.156 70.6983 133.271C70.8759 133.445 70.9412 133.97 70.7726 134.498ZM95.2747 266.887C95.1638 267.356 94.7569 267.537 94.4609 267.248C94.1057 266.902 94.0982 266.317 94.3867 266.021C94.7329 265.666 95.082 265.545 95.2004 265.66C95.378 265.833 95.4433 266.359 95.2747 266.887ZM90.8069 264.957C90.2876 265.49 87.76 264.411 87.7494 263.593C87.7449 263.242 88.0379 263.297 88.4523 263.701C88.8668 264.105 89.2752 264.041 89.3284 263.631C89.4393 263.162 89.9069 263.156 90.3805 263.618C90.8541 264.079 91.0377 264.72 90.8069 264.957ZM79.4606 260.017C78.826 260.668 77.4703 259.808 77.6344 258.929C77.7453 258.46 78.2705 258.395 78.7442 258.857C79.277 259.376 79.576 259.898 79.4606 260.017ZM58.5221 245.613C58.1714 245.617 57.5809 245.157 57.3396 244.575C57.039 243.936 57.3897 243.932 58.0409 244.566C58.7498 245.142 58.932 245.666 58.5221 245.613ZM33.7244 231.141C33.4359 231.437 33.029 231.618 32.9106 231.502C32.733 231.329 32.7255 230.745 32.8364 230.276C33.005 229.747 33.3541 229.626 33.6501 229.914C34.0053 230.261 34.0706 230.786 33.7244 231.141ZM49.4129 246.431C48.9468 246.554 48.2439 246.446 47.8886 246.1C47.5926 245.812 47.6444 245.285 47.9329 244.989C48.2791 244.634 48.9243 244.801 49.4571 245.32C49.9307 245.782 49.9367 246.249 49.4129 246.431ZM11.4885 211.317C11.3731 211.435 10.6065 210.919 9.77769 210.111C8.94887 209.304 8.52841 208.432 8.81689 208.136C9.0477 207.899 9.8143 208.416 10.47 209.401C11.1835 210.327 11.6039 211.199 11.4885 211.317ZM23.9862 223.959C23.8753 224.428 23.2316 224.378 22.5211 223.685C21.8107 222.993 21.744 222.351 22.2101 222.228C22.7339 222.046 23.3791 222.213 23.6751 222.501C23.9711 222.79 24.1547 223.431 23.9862 223.959ZM26.7791 227.489C26.1444 228.14 25.8514 228.086 26.1354 227.439C26.3632 226.968 26.1796 226.328 25.6527 226.276C25.1837 226.165 25.12 225.757 25.4085 225.461C25.7547 225.105 26.4576 225.213 26.9312 225.675C27.4048 226.136 27.3576 227.014 26.7791 227.489ZM32.2116 236.247C31.9232 236.543 31.0989 236.086 30.27 235.278C29.4412 234.47 28.9631 233.658 29.2515 233.362C29.4824 233.125 30.3067 233.582 31.1355 234.39C31.9643 235.198 32.4424 236.01 32.2116 236.247Z" fill="white"/>
</svg>
